<?xml version="1.0" standalone="no"?><!DOCTYPE svg PUBLIC "-//W3C//DTD SVG 1.1//EN" "http://www.w3.org/Graphics/SVG/1.1/DTD/svg11.dtd"><svg t="1748966098563" class="icon" viewBox="0 0 1024 1024" version="1.1" xmlns="http://www.w3.org/2000/svg" p-id="18302" xmlns:xlink="http://www.w3.org/1999/xlink" width="256" height="256"><path d="M512 0a512 512 0 0 1 512 512 512 512 0 0 1-512 512 512 512 0 0 1-512-512 512 512 0 0 1 512-512z m77.531429 512l129.316571-129.316571a54.857143 54.857143 0 0 0-77.531429-77.531429L512 434.395429 382.683429 305.152a54.857143 54.857143 0 1 0-77.531429 77.531429L434.395429 512 305.152 641.316571a54.857143 54.857143 0 1 0 77.531429 77.531429L512 589.604571l129.316571 129.243429a54.857143 54.857143 0 1 0 77.531429-77.531429L589.604571 512z" fill="#FF5252" p-id="18303"></path></svg>