<?xml version="1.0" standalone="no"?><!DOCTYPE svg PUBLIC "-//W3C//DTD SVG 1.1//EN" "http://www.w3.org/Graphics/SVG/1.1/DTD/svg11.dtd"><svg t="1748966138445" class="icon" viewBox="0 0 1024 1024" version="1.1" xmlns="http://www.w3.org/2000/svg" p-id="22868" xmlns:xlink="http://www.w3.org/1999/xlink" width="256" height="256"><path d="M512 0C230.4 0 0 230.4 0 512s230.4 512 512 512 512-230.4 512-512-230.4-512-512-512z m64 768c0 38.4-25.6 64-64 64s-64-25.6-64-64V512c0-38.4 25.6-64 64-64s64 25.6 64 64v256z m0-480c0 19.2-12.8 32-32 32h-64c-19.2 0-32-12.8-32-32v-64c0-19.2 12.8-32 32-32h64c19.2 0 32 12.8 32 32v64z" fill="#1296db" p-id="22869"></path></svg>