<?xml version="1.0" standalone="no"?><!DOCTYPE svg PUBLIC "-//W3C//DTD SVG 1.1//EN" "http://www.w3.org/Graphics/SVG/1.1/DTD/svg11.dtd"><svg t="1761293695575" class="icon" viewBox="0 0 1024 1024" version="1.1" xmlns="http://www.w3.org/2000/svg" p-id="4585" xmlns:xlink="http://www.w3.org/1999/xlink" width="200" height="200"><path d="M85.333333 383.744A255.573333 255.573333 0 0 1 341.333333 128h341.333334c141.354667 0 256 114.986667 256 255.744V896H341.333333c-141.354667 0-256-114.986667-256-255.744V383.744zM853.333333 810.666667V383.744A170.837333 170.837333 0 0 0 682.666667 213.333333H341.333333a170.24 170.24 0 0 0-170.666666 170.410667v256.512A170.837333 170.837333 0 0 0 341.333333 810.666667h512z m-256-341.333334h85.333334v85.333334h-85.333334v-85.333334z m-256 0h85.333334v85.333334H341.333333v-85.333334z" p-id="4586" fill="#000000"></path></svg>