<?xml version="1.0" standalone="no"?><!DOCTYPE svg PUBLIC "-//W3C//DTD SVG 1.1//EN" "http://www.w3.org/Graphics/SVG/1.1/DTD/svg11.dtd">
<svg t="1747909278036" class="icon" viewBox="0 0 1024 1024" version="1.1" xmlns="http://www.w3.org/2000/svg" p-id="1034" width="200" height="200"><path d="M902.48533333 463.94026667l-138.00789333-269.95370667a105.45834667 105.45834667 0 0 0-93.93493333-57.45322667H356.352c-39.3216 0-75.3664 21.84533333-93.49802667 56.68864l-140.9024 269.95370667a105.45834667 105.45834667 0 0 0 0 97.64864l140.9024 269.95370667a105.45834667 105.45834667 0 0 0 93.49802667 56.68864h314.19050667c39.64928 0 75.91253333-22.17301333 93.93493333-57.45322667l138.00789333-270.00832a105.45834667 105.45834667 0 0 0 0-96.01024z m-77.22325333 397.14816a173.72501333 173.72501333 0 0 1-154.71957333 94.64490666H356.352a173.72501333 173.72501333 0 0 1-154.0096-93.3888l-140.9024-269.95370666a173.72501333 173.72501333 0 0 1 0-160.78165334l140.9024-270.00832a173.72501333 173.72501333 0 0 1 154.0096-93.33418666h314.19050667c65.26293333 0 125.00992 36.59093333 154.71957333 94.64490666l138.00789333 270.00832c25.3952 49.69813333 25.3952 108.51669333 0 158.16021334l-138.00789333 270.00832z" fill="#CED0D6" p-id="1035"></path><path d="M512 709.97333333a197.97333333 197.97333333 0 1 1 0-395.94666666 197.97333333 197.97333333 0 0 1 0 395.94666666z m0-68.26666666a129.70666667 129.70666667 0 1 0 0-259.41333334 129.70666667 129.70666667 0 0 0 0 259.41333334z" fill="#CED0D6" p-id="1036"></path></svg>