<?xml version="1.0" standalone="no"?><!DOCTYPE svg PUBLIC "-//W3C//DTD SVG 1.1//EN" "http://www.w3.org/Graphics/SVG/1.1/DTD/svg11.dtd"><svg t="1748881804271" class="icon" viewBox="0 0 1024 1024" version="1.1" xmlns="http://www.w3.org/2000/svg" p-id="25930" xmlns:xlink="http://www.w3.org/1999/xlink" width="256" height="256"><path d="M983.770989 312.710211a510.243964 510.243964 0 0 0-109.714155-162.742664A510.292726 510.292726 0 0 0 512.000122 0.000488 510.292726 510.292726 0 0 0 149.94341 149.943166 510.14644 510.14644 0 0 0 0.000731 511.999878a510.219583 510.219583 0 0 0 149.942679 362.056712A510.219583 510.219583 0 0 0 512.000122 1023.999269a510.170821 510.170821 0 0 0 362.056712-149.942679A510.41463 510.41463 0 0 0 1023.999512 511.999878a508.82987 508.82987 0 0 0-40.228523-199.289667z m-200.898809 61.976307L472.283598 695.246898a31.622058 31.622058 0 0 1-44.251376 1.267808l-187.952538-172.763223a31.768343 31.768343 0 0 1 21.479593-55.076506c7.972562 0 15.603791 2.974473 21.455213 8.362657l165.205136 151.868772 289.084609-298.37374c6.046469-6.217135 14.140936-9.654846 22.796163-9.654846a31.768343 31.768343 0 0 1 22.771782 53.808698z" fill="#2ABB50" p-id="25931"></path></svg>